<svg width="123" height="60" viewBox="0 0 123 60" fill="none" xmlns="http://www.w3.org/2000/svg">
<path d="M22.6282 47.81H6.99753V29.1033H1.44238V52.4029H22.6282V47.81Z" fill="#152049"/>
<path d="M32.8862 29.1033H27.3311V52.4029H32.8862V29.1033Z" fill="#152049"/>
<path d="M52.5465 47.8132H43.1475V42.9809H52.4735C54.6823 42.9809 55.7901 43.7692 55.7901 45.3779C55.7901 46.9865 54.7221 47.8132 52.5498 47.8132H52.5465ZM43.1509 33.6962H52.0523C54.1152 33.6962 55.1466 34.4845 55.1466 36.0931C55.1466 37.6347 54.1152 38.388 51.9794 38.388H43.1509V33.6962ZM56.9276 40.4435C59.4216 39.6232 60.6653 37.9092 60.6653 35.375C60.6653 31.2258 57.7468 29.1033 52.0855 29.1033H37.5957V52.4029H52.5863C58.4233 52.4029 61.4513 50.2101 61.4513 45.9268C61.4513 43.0543 59.9556 41.2318 56.9276 40.4435Z" fill="#152049"/>
<path d="M78.2103 48.0848C73.6534 48.0848 70.5558 45.1037 70.5558 40.7438C70.5558 36.384 73.6534 33.4029 78.2103 33.4029C82.7672 33.4029 85.8648 36.384 85.8648 40.7438C85.8648 45.1037 82.7672 48.0848 78.2103 48.0848ZM78.2103 28.6919C70.2507 28.6919 64.8945 33.5242 64.8945 40.7534C64.8945 47.9827 70.2341 52.8149 78.2103 52.8149C86.1865 52.8149 91.5261 47.9827 91.5261 40.7534C91.5261 33.5242 86.1865 28.6919 78.2103 28.6919Z" fill="#152049"/>
<path d="M110.049 39.2466H101.791V33.6962H110.049C112.506 33.6962 113.644 34.5866 113.644 36.4698C113.644 38.3529 112.506 39.2466 110.049 39.2466ZM119.305 36.4698C119.305 31.6822 116.28 29.1033 110.656 29.1033H96.2354V52.4029H101.791V43.8363H107.913L113.929 52.4029H120.482L114.108 43.4245C117.527 42.534 119.305 40.1722 119.305 36.4698Z" fill="#152049"/>
<path d="M0.719682 55.1958H0V59.0961H3.4757V58.5024H0.719682V55.1958Z" fill="#152049"/>
<path d="M6.10898 58.5441C5.82222 58.5384 5.54361 58.4514 5.30807 58.2939C5.07253 58.1364 4.89056 57.9154 4.78503 57.6588C4.67949 57.4021 4.65509 57.1212 4.71487 56.8512C4.77464 56.5812 4.91592 56.3343 5.12101 56.1413C5.3261 55.9483 5.58583 55.818 5.86763 55.7666C6.14942 55.7151 6.44073 55.745 6.70497 55.8523C6.96922 55.9596 7.19465 56.1397 7.35295 56.3699C7.51125 56.6 7.59536 56.8701 7.59477 57.1461C7.60362 57.3347 7.57101 57.523 7.49902 57.6986C7.42703 57.8742 7.31731 58.0332 7.17705 58.1651C7.03678 58.2971 6.86913 58.3991 6.68508 58.4644C6.50102 58.5297 6.30469 58.5568 6.10898 58.5441ZM6.10898 55.1257C4.78238 55.1257 3.89355 55.9332 3.89355 57.1461C3.89355 58.3589 4.77906 59.1633 6.10898 59.1633C7.4389 59.1633 8.33438 58.3558 8.33438 57.1461C8.33438 55.9364 7.44553 55.1257 6.10898 55.1257Z" fill="#152049"/>
<path d="M12.3436 58.0237L10.0851 55.1958H9.17969V59.0961H9.86952V55.9778L12.3602 59.0961H13.0335V55.1958H12.3436V58.0237Z" fill="#152049"/>
<path d="M15.9925 57.5159H17.2129V58.3585C16.9105 58.4847 16.5841 58.5488 16.2545 58.5468C15.2396 58.5468 14.5962 58.0074 14.5962 57.1488C14.5962 56.2903 15.2098 55.7477 16.1915 55.7477C16.6363 55.7488 17.0715 55.8728 17.4451 56.1051L17.6773 55.537C17.227 55.2581 16.7002 55.1158 16.165 55.1285C14.7554 55.1285 13.8633 55.92 13.8633 57.1584C13.8633 58.3968 14.7521 59.166 16.1848 59.166C16.795 59.188 17.3959 59.0177 17.8962 58.6809V56.919H15.9659L15.9925 57.5159Z" fill="#152049"/>
<path d="M21.2992 55.1958H20.5762V59.0961H21.2992V55.1958Z" fill="#152049"/>
<path d="M24.1673 56.8107C23.2686 56.7468 22.9833 56.6192 22.9833 56.3C22.9833 55.9808 23.3747 55.7383 24.0247 55.7383C24.5275 55.7254 25.0217 55.8649 25.4376 56.1372L25.7261 55.5978C25.2256 55.2756 24.6332 55.1116 24.0314 55.1286C22.9104 55.1286 22.2504 55.5755 22.2504 56.3287C22.2504 57.082 22.728 57.3724 24.0247 57.4682C24.9268 57.532 25.2187 57.6597 25.2187 57.9789C25.2187 58.3651 24.8174 58.5597 24.0678 58.5597C23.4643 58.5647 22.8743 58.3884 22.3797 58.0555L22.0713 58.6044C22.6571 58.9875 23.3531 59.184 24.0612 59.1662C25.275 59.1662 25.9384 58.7417 25.9384 57.9501C25.9384 57.2097 25.4608 56.9064 24.1541 56.8107" fill="#152049"/>
<path d="M27.4769 55.1958H26.7539V59.0961H30.2296V58.5024H27.4769V55.1958Z" fill="#152049"/>
<path d="M32.1106 57.5863L32.8635 55.9234L33.613 57.5863H32.1106ZM32.5119 55.2085L30.6514 59.1088H31.4075L31.8453 58.1736H33.8816L34.3161 59.1088H35.0955L33.2349 55.2085H32.5119Z" fill="#152049"/>
<path d="M38.9784 58.0237L36.7199 55.1958H35.8145V59.0961H36.5043V55.9778L38.9983 59.0961H39.6716V55.1958H38.9784V58.0237Z" fill="#152049"/>
<path d="M42.4978 58.5022H41.4465V55.7924H42.4978C43.3965 55.7924 43.9338 56.2999 43.9338 57.1489C43.9338 57.9979 43.3965 58.5022 42.4978 58.5022ZM42.5741 55.1987H40.7334V59.099H42.5807C43.8675 59.099 44.6734 58.3458 44.6734 57.1489C44.6734 55.952 43.8675 55.1987 42.5807 55.1987" fill="#152049"/>
<path d="M49.7441 58.5022H48.0029V57.4298H49.7374C50.2283 57.4298 50.4704 57.6053 50.4704 57.9628C50.4704 58.3202 50.2283 58.5022 49.7441 58.5022ZM48.0029 55.7956H49.6612C50.1155 55.7956 50.3477 55.9711 50.3477 56.3158C50.3477 56.6605 50.1155 56.8329 49.6578 56.8329H47.9996L48.0029 55.7956ZM50.4306 57.0978C50.6244 57.0451 50.7938 56.9304 50.9108 56.7725C51.0278 56.6147 51.0853 56.4232 51.074 56.2297C51.074 55.553 50.5964 55.1987 49.6844 55.1987H47.2832V59.099H49.7673C50.7092 59.099 51.2033 58.732 51.2033 58.0298C51.2155 57.8103 51.1436 57.5941 51.0012 57.4223C50.8587 57.2505 50.6557 57.135 50.4306 57.0978Z" fill="#152049"/>
<path d="M54.0586 58.5441C53.7719 58.5384 53.4932 58.4514 53.2577 58.2939C53.0221 58.1364 52.8402 57.9154 52.7346 57.6588C52.6291 57.4021 52.6047 57.1212 52.6645 56.8512C52.7243 56.5812 52.8655 56.3343 53.0706 56.1413C53.2757 55.9483 53.5354 55.818 53.8172 55.7666C54.099 55.7151 54.3903 55.745 54.6546 55.8523C54.9188 55.9596 55.1442 56.1397 55.3025 56.3699C55.4608 56.6 55.545 56.8701 55.5444 57.1461C55.5533 57.3347 55.5206 57.523 55.4486 57.6986C55.3766 57.8742 55.2669 58.0332 55.1266 58.1651C54.9864 58.2971 54.8187 58.3991 54.6347 58.4644C54.4506 58.5297 54.2543 58.5568 54.0586 58.5441ZM54.0586 55.1257C52.732 55.1257 51.8398 55.9332 51.8398 57.1461C51.8398 58.3589 52.7287 59.1633 54.0586 59.1633C55.3885 59.1633 56.2807 58.3558 56.2807 57.1461C56.2807 55.9364 55.3952 55.1257 54.0586 55.1257Z" fill="#152049"/>
<path d="M58.0061 57.5863L58.7556 55.9234L59.5085 57.5863H58.0061ZM58.4041 55.2085L56.5469 59.1088H57.3163L57.7508 58.1736H59.7904L60.2249 59.1088H61.0109L59.1503 55.2085H58.4041Z" fill="#152049"/>
<path d="M62.4398 56.9765V55.7956H64.0383C64.5425 55.7956 64.7879 55.9903 64.7879 56.3861C64.7879 56.7818 64.5425 56.9765 64.0383 56.9765H62.4398ZM65.5208 56.3861C65.5208 55.6168 65.0333 55.1987 64.1378 55.1987H61.7168V59.099H62.4398V57.5862H63.7664L64.8774 59.1118H65.7331L64.5889 57.5447C64.8692 57.5065 65.1237 57.3665 65.3001 57.1534C65.4765 56.9403 65.5614 56.6703 65.5374 56.3988" fill="#152049"/>
<path d="M68.2599 58.5022H67.2118V55.7924H68.2599C69.162 55.7924 69.6959 56.2999 69.6959 57.1489C69.6959 57.9979 69.162 58.5022 68.2599 58.5022ZM68.3395 55.1987H66.4922V59.099H68.3395C69.6263 59.099 70.4322 58.3458 70.4322 57.1489C70.4322 55.952 69.6263 55.1987 68.3395 55.1987Z" fill="#152049"/>
<path d="M75.0328 58.5441C74.7461 58.5384 74.4674 58.4514 74.2319 58.2939C73.9963 58.1364 73.8144 57.9154 73.7089 57.6588C73.6033 57.4021 73.5789 57.1212 73.6387 56.8512C73.6985 56.5812 73.8398 56.3343 74.0448 56.1413C74.2499 55.9483 74.5097 55.818 74.7915 55.7666C75.0733 55.7151 75.3646 55.745 75.6288 55.8523C75.893 55.9596 76.1185 56.1397 76.2768 56.3699C76.4351 56.6 76.5192 56.8701 76.5186 57.1461C76.5275 57.3347 76.4948 57.523 76.4228 57.6986C76.3508 57.8742 76.2411 58.0332 76.1009 58.1651C75.9606 58.2971 75.7929 58.3991 75.6089 58.4644C75.4248 58.5297 75.2285 58.5568 75.0328 58.5441ZM75.0328 55.1257C73.7062 55.1257 72.8174 55.9332 72.8174 57.1461C72.8174 58.3589 73.7029 59.1633 75.0328 59.1633C76.3627 59.1633 77.2582 58.3558 77.2582 57.1461C77.2582 55.9364 76.3694 55.1257 75.0328 55.1257Z" fill="#152049"/>
<path d="M78.1035 59.0961H78.8232V57.4811H81.3073V56.8842H78.8232V55.7927H81.6953V55.1958H78.1035V59.0961Z" fill="#152049"/>
<path d="M84.9326 56.9765V55.7956H86.5311C87.0386 55.7956 87.2807 55.9903 87.2807 56.3861C87.2807 56.7818 87.0386 56.9765 86.5311 56.9765H84.9326ZM88.0136 56.3861C88.0136 55.6168 87.5261 55.1987 86.6306 55.1987H84.2129V59.099H84.9326V57.5862H86.2592L87.3669 59.1118H88.2259L87.0817 57.5447C87.3617 57.5065 87.6159 57.3664 87.7917 57.1532C87.9676 56.94 88.0518 56.67 88.0269 56.3988" fill="#152049"/>
<path d="M88.9688 59.0961H92.5638V58.5024H89.6884V57.43H92.1758V56.8332H89.6884V55.7927H92.5638V55.1958H88.9688V59.0961Z" fill="#152049"/>
<path d="M94.5007 57.5863L95.2502 55.9234L96.0031 57.5863H94.5007ZM94.8986 55.2085L93.0381 59.1088H93.7976L94.2321 58.1736H96.2684L96.7062 59.1088H97.4922L95.6316 55.2085H94.8986Z" fill="#152049"/>
<path d="M98.9349 55.1958H98.2119V59.0961H101.688V58.5024H98.9349V55.1958Z" fill="#152049"/>
<path d="M101.156 55.7927H102.725V59.0961H103.445V55.7927H105.013V55.1958H101.156V55.7927Z" fill="#152049"/>
<path d="M107.647 58.5441C107.36 58.5384 107.082 58.4514 106.846 58.2939C106.611 58.1364 106.429 57.9154 106.323 57.6588C106.218 57.4021 106.193 57.1212 106.253 56.8512C106.313 56.5812 106.454 56.3343 106.659 56.1413C106.864 55.9483 107.124 55.818 107.406 55.7666C107.688 55.7151 107.979 55.745 108.243 55.8523C108.507 55.9596 108.733 56.1397 108.891 56.3699C109.049 56.6 109.133 56.8701 109.133 57.1461C109.142 57.3347 109.109 57.523 109.037 57.6986C108.965 57.8742 108.855 58.0332 108.715 58.1651C108.575 58.2971 108.407 58.3991 108.223 58.4644C108.039 58.5297 107.843 58.5568 107.647 58.5441ZM107.647 55.1257C106.32 55.1257 105.432 55.9332 105.432 57.1461C105.432 58.3589 106.317 59.1633 107.647 59.1633C108.977 59.1633 109.872 58.3558 109.872 57.1461C109.872 55.9364 108.984 55.1257 107.647 55.1257Z" fill="#152049"/>
<path d="M111.438 56.9765V55.7956H113.033C113.541 55.7956 113.783 55.9903 113.783 56.3861C113.783 56.7818 113.541 56.9765 113.033 56.9765H111.438ZM114.519 56.3861C114.519 55.6168 114.032 55.1987 113.136 55.1987H110.712V59.099H111.432V57.5862H112.758L113.866 59.1118H114.725L113.581 57.5447C113.861 57.5065 114.115 57.3664 114.291 57.1532C114.467 56.94 114.551 56.67 114.526 56.3988" fill="#152049"/>
<path d="M117.285 56.8107C116.386 56.7469 116.098 56.6192 116.098 56.3001C116.098 55.9809 116.492 55.7383 117.142 55.7383C117.645 55.7258 118.139 55.8654 118.555 56.1373L118.84 55.5979C118.341 55.2754 117.75 55.1113 117.149 55.1287C116.028 55.1287 115.365 55.5755 115.365 56.3288C115.365 57.082 115.842 57.3725 117.142 57.4682C118.041 57.5321 118.333 57.6597 118.333 57.9789C118.333 58.3651 117.935 58.5598 117.185 58.5598C116.582 58.5647 115.992 58.3885 115.497 58.0555L115.186 58.6045C115.772 58.9872 116.467 59.1837 117.175 59.1662C118.393 59.1662 119.053 58.7417 119.053 57.9502C119.053 57.2097 118.578 56.9065 117.272 56.8107" fill="#152049"/>
<path d="M120.784 56.9225C120.606 56.9168 120.434 56.861 120.289 56.7619C120.144 56.6628 120.033 56.5248 119.969 56.3651C119.905 56.2055 119.891 56.0313 119.929 55.8642C119.968 55.6971 120.056 55.5446 120.184 55.4256C120.312 55.3066 120.473 55.2264 120.648 55.195C120.822 55.1637 121.003 55.1825 121.167 55.2492C121.33 55.3159 121.47 55.4275 121.568 55.5702C121.667 55.7128 121.719 55.88 121.719 56.0511C121.725 56.1694 121.704 56.2875 121.659 56.3976C121.613 56.5077 121.544 56.6072 121.455 56.6896C121.367 56.7719 121.261 56.8353 121.146 56.8754C121.03 56.9156 120.907 56.9316 120.784 56.9225ZM120.784 54.8734C120.545 54.8852 120.315 54.9642 120.122 55.1007C119.929 55.2371 119.782 55.4249 119.699 55.6409C119.616 55.8568 119.601 56.0915 119.655 56.3158C119.709 56.5401 119.83 56.7443 120.003 56.903C120.177 57.0617 120.395 57.168 120.63 57.2087C120.866 57.2495 121.109 57.2229 121.329 57.1322C121.549 57.0416 121.736 56.8909 121.868 56.6987C122 56.5066 122.07 56.2814 122.071 56.0511C122.075 55.8901 122.044 55.7301 121.98 55.5813C121.916 55.4326 121.82 55.2984 121.699 55.1874C121.578 55.0764 121.433 54.9912 121.276 54.9371C121.118 54.883 120.951 54.8613 120.784 54.8734Z" fill="#152049"/>
<path d="M120.837 55.9909H120.595V55.7641H120.837C120.943 55.7641 120.989 55.7992 120.989 55.8759C120.989 55.9525 120.943 55.9909 120.837 55.9909ZM121.354 55.8727C121.354 55.6331 121.205 55.5054 120.92 55.5054H120.236V56.6105H120.595V56.2464H120.757L120.996 56.6105H121.414L121.138 56.2113C121.209 56.1865 121.268 56.1396 121.308 56.0782C121.347 56.0167 121.363 55.9443 121.354 55.8727Z" fill="#152049"/>
<path d="M2.52713 13.2915H10.7687V25.2988H2.52713V13.2915ZM8.29452 1.4119H16.5228V7.60704H14.5329V25.3051H11.6442V12.4521H8.29784L8.29452 1.4119ZM23.64 25.3051H15.3985V8.43369H23.64V25.3051ZM28.5584 21.057V22.2475H24.5122V21.057H28.5584ZM46.8489 16.7481C47.8726 16.3779 48.9052 16.047 49.9466 15.7555V18.6281C48.6067 19.0785 47.2984 19.6116 46.0297 20.2239H45.4693V17.2716H45.4162L45.5522 17.2237L46.8489 16.7481ZM76.5947 17.2205L76.6809 17.2492V20.2207H76.1204C74.8518 19.6084 73.5435 19.0753 72.2036 18.6249V15.7523C73.245 16.0396 74.2775 16.3694 75.3012 16.7417L76.5947 17.2205ZM97.6412 22.2475H93.5918V21.057H97.6412V22.2475ZM102.948 13.9873L107.727 18.2227H107.395V25.2988H98.5301V18.2227H98.1984L102.948 13.9873ZM82.8894 23.904V23.0869H85.9671C84.9324 23.3135 83.9043 23.5848 82.8894 23.904ZM80.9791 23.0869H82.0205V23.8561C81.6888 23.5944 81.3306 23.3359 80.9791 23.0869ZM82.0205 21.057V22.2475H79.7852V22.2762C79.1219 21.8506 78.4442 21.4442 77.7521 21.057H82.0205ZM82.0205 20.2207H77.5465V17.5524C79.0257 18.0631 80.5314 18.5291 82.0238 18.9377L82.0205 20.2207ZM87.3667 20.2207H82.8927V19.1611C84.3719 19.5377 85.8776 19.8696 87.3667 20.1441V20.2207ZM88.2389 22.2475V21.057H92.7129V22.2475H88.2389ZM82.8894 22.2475V21.057H87.3634V22.2475H82.8894ZM72.197 20.2207V19.5185C72.8205 19.7324 73.4373 19.9686 74.0476 20.2207H72.197ZM49.9399 20.2207H48.0926C48.6995 19.9686 49.3164 19.7324 49.9399 19.5185V20.2207ZM55.2861 18.1493V20.2207H50.8122V19.2313C52.2754 18.7705 53.7704 18.4089 55.2861 18.1493ZM55.2861 17.3003C53.772 17.5519 52.2773 17.9016 50.8122 18.3472V15.5225C52.2847 15.1459 53.7785 14.8507 55.2861 14.6384V17.3003ZM60.6323 16.8279C59.1348 16.8442 57.6401 16.9572 56.1584 17.1662V14.5171C57.6428 14.3388 59.1365 14.2418 60.6323 14.2267V16.8279ZM65.9785 17.1662C64.4968 16.9572 63.0021 16.8442 61.5046 16.8279V14.2267C63.0004 14.2418 64.4941 14.3388 65.9785 14.5171V17.1662ZM66.8508 17.2939V14.632C68.3598 14.8439 69.8548 15.1401 71.3281 15.5193V18.328C69.8617 17.8828 68.3659 17.5331 66.8508 17.2812V17.2939ZM66.8508 18.1301C68.368 18.3897 69.8641 18.7523 71.3281 19.2153V20.2016H66.8541L66.8508 18.1301ZM61.5046 17.6514C63.0025 17.6703 64.4973 17.7876 65.9785 18.0025V20.2016H61.5046V17.6514ZM60.6323 20.2048H56.1584V18.0089C57.6396 17.794 59.1344 17.6767 60.6323 17.6578V20.2048ZM42.3915 22.2347H40.1164V21.0442H44.3814C43.7005 21.4166 43.0372 21.8145 42.3915 22.2379V22.2347ZM40.1164 23.0741H41.1578C40.8063 23.3231 40.458 23.5816 40.1164 23.8433V23.0741ZM36.1698 23.0741H39.2475V23.8912C38.2326 23.572 37.2067 23.2997 36.1698 23.0741ZM33.898 21.0442V22.2347H29.424V21.0442H33.898ZM39.2475 21.0442V22.2347H34.7636V21.0442H39.2475ZM39.2475 20.208H34.7636V20.1314C36.266 19.8569 37.7484 19.5249 39.2409 19.1483L39.2475 20.208ZM40.1164 20.208V18.9313C41.6254 18.5227 43.1013 18.0567 44.5937 17.5461V20.2143L40.1164 20.208ZM111.707 22.7964H119.139L119.427 25.2796H111.405L111.707 22.7964ZM116.592 9.88273L117.441 21.957H113.365L114.217 9.88593L116.592 9.88273ZM115.418 5.1909L116.413 6.19629H116.32V8.92521H114.499V6.19948H114.406L115.418 5.1909ZM6.17196 26.1286H28.1306V25.2892H24.4824V23.0709H28.4622C32.1368 23.0701 35.7871 23.6435 39.2707 24.7689V25.2892H38.6605V26.1286H40.7499V25.2892H40.1396V24.9221C42.0141 23.4067 44.064 22.1044 46.2486 21.041H75.9347C78.1193 22.1044 80.1692 23.4067 82.0437 24.9221V25.2892H81.4334V26.1286H83.5229V25.2892H82.9126V24.7689C86.3962 23.6435 90.0465 23.0701 93.7211 23.0709H97.6578V25.2892H94.0295V26.1286H115.637H120.402L119.922 21.9794H118.316L117.467 9.90508H118.615V9.07204H117.199V7.06125H118.462L115.421 4.00358L112.373 7.06125H113.637V9.07204H112.221V9.90827H113.365L112.516 21.9826H110.934L110.526 25.3147H108.264V19.0621H109.965L102.968 12.8383L95.9564 19.0621H97.6545V20.2143H94.0063L91.5687 19.9239C86.56 19.3225 81.6435 18.1493 76.923 16.429L75.6296 15.9566C66.2676 12.5267 55.9224 12.5267 46.5604 15.9566L45.267 16.429C40.5413 18.1507 35.6191 19.324 30.6047 19.9239L28.1637 20.2143H24.5156V7.60065H17.4116V0.578857H7.42559V12.4648H1.6582V26.1478H6.16202L6.17196 26.1286Z" fill="#152049"/>
</svg>