<?xml version="1.0" standalone="no"?>
<!DOCTYPE svg PUBLIC "-//W3C//DTD SVG 20010904//EN"
 "http://www.w3.org/TR/2001/REC-SVG-20010904/DTD/svg10.dtd">
<svg version="1.0" xmlns="http://www.w3.org/2000/svg"
 width="976.000000pt" height="976.000000pt" viewBox="0 0 976.000000 976.000000"
 preserveAspectRatio="xMidYMid meet">
<metadata>
Created by potrace 1.14, written by Peter Selinger 2001-2017
</metadata>
<g transform="translate(0.000000,976.000000) scale(0.100000,-0.100000)"
fill="#000000" stroke="none">
<path d="M3279 9756 c-2 -2 -40 -7 -84 -11 -44 -4 -91 -8 -105 -10 -97 -13
-121 -16 -141 -20 -13 -3 -37 -8 -54 -11 -16 -4 -37 -6 -45 -6 -8 -1 -19 -4
-25 -8 -5 -4 -18 -6 -27 -5 -10 2 -18 -1 -18 -6 0 -6 -4 -8 -9 -5 -9 6 -157
-32 -276 -72 -44 -14 -83 -25 -87 -24 -5 1 -8 -2 -8 -6 0 -5 -7 -9 -15 -9 -8
0 -31 -7 -52 -15 -190 -80 -256 -110 -373 -171 -74 -38 -136 -74 -138 -78 -2
-5 -8 -9 -14 -9 -6 0 -70 -39 -142 -87 -127 -85 -153 -104 -181 -130 -8 -7
-18 -13 -23 -13 -6 0 -12 -3 -14 -7 -1 -5 -19 -21 -38 -37 -132 -107 -349
-317 -420 -405 -19 -24 -47 -57 -63 -73 -15 -16 -27 -33 -27 -38 0 -4 -4 -10
-8 -12 -27 -11 -235 -317 -298 -438 -21 -41 -42 -77 -45 -80 -12 -11 -79 -150
-71 -150 4 0 3 -4 -3 -8 -14 -10 -35 -49 -35 -66 0 -8 -7 -21 -15 -30 -9 -8
-15 -17 -14 -18 3 -4 -22 -81 -31 -93 -15 -22 -125 -375 -135 -434 -3 -19 -8
-38 -10 -41 -3 -4 -8 -25 -11 -46 -8 -49 -12 -69 -14 -69 -1 0 -3 -11 -5 -25
-4 -36 -15 -101 -20 -127 -3 -12 -8 -46 -10 -75 -3 -29 -8 -71 -12 -93 -16
-101 -7 -643 12 -756 2 -13 6 -44 9 -69 3 -25 8 -58 12 -75 3 -16 7 -44 9 -62
1 -17 5 -35 8 -40 3 -5 9 -32 13 -59 3 -27 11 -55 16 -61 6 -7 8 -13 5 -13 -5
0 18 -93 41 -167 6 -18 8 -33 5 -33 -3 0 -1 -6 4 -12 6 -7 14 -26 18 -43 10
-37 9 -34 23 -68 7 -16 12 -34 12 -41 0 -7 3 -16 8 -20 4 -4 7 -11 7 -14 0
-10 44 -118 82 -200 18 -41 33 -78 33 -82 0 -5 -12 -35 -26 -67 -38 -84 -50
-112 -72 -168 -10 -27 -22 -59 -27 -70 -10 -24 -5 -10 -59 -187 -25 -81 -47
-160 -50 -175 -2 -15 -5 -28 -6 -28 -2 0 -3 -5 -15 -60 -23 -109 -33 -170 -50
-305 -3 -25 -8 -63 -11 -85 -10 -68 -14 -548 -5 -586 5 -21 5 -43 0 -50 -4 -7
-5 -18 -1 -24 4 -5 8 -21 9 -35 6 -54 25 -186 30 -215 3 -16 7 -40 7 -52 1
-13 3 -23 6 -23 3 0 6 -12 7 -28 1 -30 11 -79 19 -102 3 -8 8 -26 10 -40 8
-38 63 -226 91 -310 40 -116 130 -323 196 -450 57 -109 174 -310 187 -320 3
-3 21 -27 40 -55 19 -27 38 -53 44 -57 7 -5 7 -8 1 -8 -7 0 -7 -3 0 -8 6 -4
45 -51 88 -105 159 -199 349 -389 544 -545 130 -104 415 -292 441 -292 6 0 12
-4 14 -9 9 -22 460 -226 472 -213 3 3 6 -1 6 -8 0 -7 3 -11 6 -7 4 3 19 0 35
-9 16 -8 31 -14 34 -14 3 0 6 0 8 -1 1 0 9 -2 17 -4 8 -3 67 -20 130 -39 103
-31 139 -39 205 -51 11 -2 21 -4 23 -5 4 -4 60 -15 132 -25 14 -2 54 -9 90
-14 227 -36 693 -37 915 -1 33 5 80 12 105 16 63 9 64 9 75 15 6 3 24 6 40 7
40 3 58 6 70 13 6 4 28 10 50 13 38 7 64 15 250 73 94 29 88 27 230 87 61 26
115 49 120 51 46 14 55 18 55 26 0 5 7 9 15 9 8 0 38 14 67 31 29 17 58 32 63
33 6 1 25 12 42 24 17 12 34 22 37 22 12 0 199 121 204 133 2 4 8 7 14 7 9 0
173 122 242 180 200 168 406 387 561 595 16 22 32 42 35 45 3 3 11 17 19 32
18 35 34 40 136 43 45 1 87 5 94 9 6 4 11 2 11 -4 0 -6 5 -8 12 -4 6 4 25 8
42 10 46 4 147 15 176 19 23 4 53 9 120 21 14 2 42 7 63 10 20 4 40 11 43 15
3 5 10 7 15 4 5 -4 53 6 106 20 54 15 105 28 113 30 22 5 171 54 195 64 76 33
202 83 213 84 6 0 12 4 12 9 0 4 6 8 13 8 35 0 416 213 522 292 6 4 48 36 95
70 47 34 87 65 90 68 3 3 18 16 34 28 88 68 277 249 374 358 24 27 54 60 66
74 12 14 37 45 56 70 19 24 40 50 45 56 6 7 18 22 27 35 9 13 32 44 50 69 46
64 78 110 78 115 0 2 17 30 38 62 21 32 41 65 45 73 4 8 17 33 31 55 38 63
106 199 106 213 0 7 5 12 10 12 6 0 10 7 10 16 0 8 7 22 15 31 8 8 13 18 10
22 -2 5 9 36 25 70 17 34 30 66 30 71 0 6 5 18 10 28 12 19 48 125 56 161 3
14 8 29 12 35 3 6 7 16 8 21 1 6 16 62 33 125 17 63 32 128 33 143 1 15 5 27
9 27 4 0 6 8 5 18 -2 9 1 31 6 47 4 17 10 48 13 70 2 22 6 49 8 60 3 11 7 45
11 75 3 30 9 82 13 115 10 78 10 552 0 630 -4 33 -9 80 -11 105 -2 25 -6 56
-10 70 -3 14 -8 45 -11 70 -4 25 -9 56 -11 70 -2 14 -6 36 -8 50 -3 14 -5 25
-6 25 -1 0 -4 11 -6 25 -4 31 -44 180 -74 275 -12 39 -23 77 -25 85 -2 8 -4
16 -5 18 -2 1 -3 5 -5 10 -2 9 -8 24 -58 152 -22 58 -47 115 -55 128 -8 12
-12 22 -9 22 6 0 -99 207 -114 226 -5 6 -6 14 -2 17 3 4 2 7 -4 7 -5 0 -15 12
-22 28 -7 15 -22 43 -35 62 -112 174 -149 229 -219 320 -44 58 -88 114 -98
125 -10 11 -47 51 -81 89 -139 153 -275 280 -423 395 -44 34 -84 65 -90 69 -5
4 -32 23 -60 42 -27 19 -51 37 -53 42 -2 4 -8 8 -14 8 -5 0 -29 14 -53 30 -24
17 -48 30 -54 30 -6 0 -11 4 -11 9 0 5 -8 11 -17 14 -10 4 -40 20 -68 36 -72
44 -311 161 -327 161 -8 0 -18 4 -23 9 -17 14 -242 99 -313 117 -9 2 -87 22
-172 44 -85 22 -169 41 -185 43 -17 2 -35 5 -40 8 -6 3 -22 5 -37 4 -16 0 -28
2 -28 5 0 3 -19 6 -43 8 -23 2 -55 5 -72 8 -42 6 -179 16 -247 18 -32 0 -58 5
-58 11 0 5 -5 4 -12 -3 -17 -17 -41 0 -84 60 -21 29 -42 55 -46 56 -5 2 -8 8
-8 13 0 10 -57 82 -148 189 -81 94 -383 390 -398 390 -4 0 -28 20 -77 63 -18
15 -44 35 -59 44 -16 10 -28 21 -28 25 0 4 -6 8 -14 8 -7 0 -20 7 -27 16 -7 9
-22 20 -34 25 -11 5 -36 21 -55 34 -39 28 -39 28 -127 85 -35 22 -63 38 -63
36 0 -2 -34 15 -76 39 -65 37 -139 72 -349 165 -35 15 -136 51 -157 56 -5 1
-10 3 -13 4 -3 1 -8 3 -12 5 -5 1 -15 5 -23 8 -30 13 -228 65 -305 81 -44 9
-91 19 -105 22 -14 3 -38 7 -55 9 -16 2 -39 6 -50 8 -11 3 -51 8 -90 12 -38 4
-79 10 -90 12 -25 6 -550 15 -556 9z"/>
</g>
</svg>
