<?xml version="1.0" encoding="UTF-8"?><svg id="Layer_1" xmlns="http://www.w3.org/2000/svg" viewBox="0 0 236.37 244"><defs><style>.cls-1{fill:#d9e5d7;}.cls-2{fill:#f9e28e;}.cls-3{fill:#f6d1c3;}.cls-4{fill:#f0ece9;}.cls-5{fill:#d1cedf;}.cls-6{fill:#66c5e5;}.cls-7{fill:#e78aad;}</style></defs><path class="cls-4" d="m153.34,37.06C138.21,14.68,112.79,0,83.97,0,37.6,0,0,38.03,0,84.95c0,13.28,3.01,25.85,8.39,37.05-5.37,11.2-8.39,23.77-8.39,37.05,0,46.92,37.6,84.95,83.97,84.95,28.82,0,54.24-14.68,69.36-37.06,45.94-.51,83.03-38.35,83.03-84.94s-37.09-84.43-83.03-84.94Z"/><path class="cls-7" d="m83.97,244C37.6,244,0,205.97,0,159.05c0-13.28,3.01-25.85,8.39-37.05,13.48,28.08,41.8,47.53,74.64,47.89,15.12,22.37,40.55,37.06,69.36,37.06.31,0,.63,0,.94,0-15.12,22.37-40.55,37.06-69.36,37.06"/><path class="cls-2" d="m8.39,122C3.01,110.8,0,98.23,0,84.95,0,38.03,37.6,0,83.97,0c28.82,0,54.24,14.68,69.36,37.06-.31,0-.63,0-.94,0-28.82,0-54.24,14.68-69.36,37.06-32.85.37-61.16,19.81-74.64,47.89"/><path class="cls-3" d="m83.03,169.89c-32.85-.37-61.16-19.81-74.64-47.89,13.48-28.08,41.8-47.53,74.64-47.89-9.22,13.64-14.61,30.13-14.61,47.89s5.39,34.26,14.61,47.89"/><path class="cls-6" d="m153.34,206.94c9.22-13.64,14.61-30.13,14.61-47.89,0-13.28-3.01-25.85-8.39-37.05,5.37-11.2,8.39-23.77,8.39-37.05,0-17.77-5.39-34.26-14.61-47.89,45.94.51,83.03,38.35,83.03,84.94s-37.09,84.43-83.03,84.94"/><path class="cls-5" d="m152.39,206.95c-28.82,0-54.24-14.68-69.36-37.06.31,0,.63,0,.94,0,33.25,0,61.98-19.55,75.59-47.9,5.37,11.2,8.39,23.77,8.39,37.05,0,17.76-5.39,34.26-14.61,47.89-.31,0-.63,0-.94,0"/><path class="cls-1" d="m159.56,122c-13.61-28.35-42.34-47.9-75.59-47.9-.31,0-.63,0-.94,0,15.12-22.37,40.55-37.06,69.36-37.06.31,0,.63,0,.94,0,9.22,13.64,14.61,30.13,14.61,47.89,0,13.28-3.01,25.85-8.39,37.05"/><path class="cls-4" d="m83.97,169.9c-.31,0-.63,0-.94,0-9.22-13.64-14.61-30.13-14.61-47.89s5.39-34.26,14.61-47.89c.31,0,.63,0,.94,0,33.25,0,61.98,19.55,75.59,47.9-13.61,28.35-42.34,47.9-75.59,47.9"/></svg>